# This file uses centimeters as units for non-parametric coordinates.

mtllib meteorite2.mtl
g default
v -0.177471 -0.353553 -0.531048
v -0.884578 -0.682866 0.087566
v -0.177471 0.586382 0.794673
v 0.529636 -0.353553 0.087567
v -0.177471 0.505768 0.087567
vt 0.500000 0.000000
vt 0.250000 0.250000
vt 0.500000 0.500000
vt 0.750000 0.250000
vt 0.250000 0.500000
vt 0.375000 0.500000
vt 0.500000 0.500000
vt 0.625000 0.500000
vt 0.750000 0.500000
vt 0.500000 1.000000
vn 0.186622 -0.801437 0.568218
vn 0.186622 -0.801437 0.568218
vn 0.186622 -0.801437 0.568218
vn 0.186622 -0.801437 0.568218
vn -0.700694 0.416836 -0.579030
vn -0.700694 0.416836 -0.579030
vn -0.700694 0.416836 -0.579030
vn -0.857968 0.510397 -0.058188
vn -0.857968 0.510397 -0.058188
vn -0.857968 0.510397 -0.058188
vn 0.770163 0.633742 -0.072250
vn 0.770163 0.633742 -0.072250
vn 0.770164 0.633741 -0.072250
vn 0.578928 0.476380 -0.661743
vn 0.578928 0.476380 -0.661743
vn 0.578928 0.476380 -0.661743
s off
g pPyramid1
usemtl initialShadingGroup
f 1/1/1 4/4/2 3/3/3 2/2/4
f 1/5/5 2/6/6 5/10/7
f 2/6/8 3/7/9 5/10/10
f 3/7/11 4/8/12 5/10/13
f 4/8/14 1/9/15 5/10/16
